<mxfile host="app.diagrams.net" modified="2023-04-08T05:21:12.533Z" agent="Mozilla/5.0 (Windows NT 10.0; Win64; x64) AppleWebKit/537.36 (KHTML, like Gecko) Chrome/111.0.0.0 Safari/537.36" etag="ydcVICX-9nvk5dyoiEI7" version="21.1.5" type="device">
  <diagram name="Page-1" id="AZ_ogEV2fHJ_LvoIkLyS">
    <mxGraphModel dx="1105" dy="578" grid="1" gridSize="10" guides="1" tooltips="1" connect="1" arrows="1" fold="1" page="1" pageScale="1" pageWidth="850" pageHeight="1100" math="0" shadow="0">
      <root>
        <mxCell id="0" />
        <mxCell id="1" parent="0" />
        <mxCell id="PeO6D0qIIOiNLHHirlC0-1" value="&lt;font style=&quot;font-size: 16px;&quot;&gt;&lt;em style=&quot;box-sizing: border-box; color: rgb(44, 45, 48); font-family: Roboto, &amp;quot;San Francisco&amp;quot;, &amp;quot;Helvetica Neue&amp;quot;, Helvetica, Arial; background-color: rgb(255, 255, 255);&quot;&gt;Задача&lt;/em&gt;: Написать программу, которая из имеющегося массива строк формирует новый массив из строк, длина которых меньше, либо равна 3 символам. Первоначальный массив можно ввести с клавиатуры, либо задать на старте выполнения алгоритма. При решении не рекомендуется пользоваться коллекциями, лучше обойтись исключительно массивами.&lt;br&gt;&lt;div style=&quot;&quot;&gt;&lt;em style=&quot;box-sizing: border-box; color: rgb(44, 45, 48); font-family: Roboto, &amp;quot;San Francisco&amp;quot;, &amp;quot;Helvetica Neue&amp;quot;, Helvetica, Arial; font-size: 15px; background-color: rgb(255, 255, 255);&quot;&gt;Примеры&lt;/em&gt;&lt;span style=&quot;background-color: initial;&quot;&gt;:&lt;/span&gt;&lt;/div&gt;&lt;span style=&quot;color: rgb(44, 45, 48); font-family: Roboto, &amp;quot;San Francisco&amp;quot;, &amp;quot;Helvetica Neue&amp;quot;, Helvetica, Arial; font-size: 15px; background-color: rgb(255, 255, 255);&quot;&gt;&lt;div style=&quot;&quot;&gt;[“Hello”, “2”, “world”, “:-)”] → [“2”, “:-)”]&lt;/div&gt;&lt;/span&gt;&lt;span style=&quot;color: rgb(44, 45, 48); font-family: Roboto, &amp;quot;San Francisco&amp;quot;, &amp;quot;Helvetica Neue&amp;quot;, Helvetica, Arial; font-size: 15px; background-color: rgb(255, 255, 255);&quot;&gt;&lt;div style=&quot;&quot;&gt;[“1234”, “1567”, “-2”, “computer science”] → [“-2”]&lt;/div&gt;&lt;/span&gt;&lt;span style=&quot;color: rgb(44, 45, 48); font-family: Roboto, &amp;quot;San Francisco&amp;quot;, &amp;quot;Helvetica Neue&amp;quot;, Helvetica, Arial; font-size: 15px; background-color: rgb(255, 255, 255);&quot;&gt;&lt;div style=&quot;&quot;&gt;[“Russia”, “Denmark”, “Kazan”] → []&lt;/div&gt;&lt;/span&gt;&lt;/font&gt;" style="text;html=1;strokeColor=none;fillColor=none;align=left;verticalAlign=middle;whiteSpace=wrap;rounded=0;" parent="1" vertex="1">
          <mxGeometry x="50" y="70" width="740" height="170" as="geometry" />
        </mxCell>
        <mxCell id="PeO6D0qIIOiNLHHirlC0-4" value="" style="edgeStyle=orthogonalEdgeStyle;rounded=0;orthogonalLoop=1;jettySize=auto;html=1;" parent="1" source="PeO6D0qIIOiNLHHirlC0-2" target="PeO6D0qIIOiNLHHirlC0-3" edge="1">
          <mxGeometry relative="1" as="geometry" />
        </mxCell>
        <mxCell id="PeO6D0qIIOiNLHHirlC0-2" value="Start" style="ellipse;whiteSpace=wrap;html=1;" parent="1" vertex="1">
          <mxGeometry x="234.95" y="300" width="120" height="80" as="geometry" />
        </mxCell>
        <mxCell id="jny_ChL_rsMG7FqHofqp-1" value="" style="edgeStyle=orthogonalEdgeStyle;rounded=0;orthogonalLoop=1;jettySize=auto;html=1;" edge="1" parent="1" source="PeO6D0qIIOiNLHHirlC0-3" target="PeO6D0qIIOiNLHHirlC0-5">
          <mxGeometry relative="1" as="geometry" />
        </mxCell>
        <mxCell id="PeO6D0qIIOiNLHHirlC0-3" value="string[] InitialArr;&amp;nbsp;&lt;br&gt;string[] someArr;&lt;br&gt;int j = 0;" style="shape=parallelogram;perimeter=parallelogramPerimeter;whiteSpace=wrap;html=1;fixedSize=1;" parent="1" vertex="1">
          <mxGeometry x="189.95" y="440" width="210" height="90" as="geometry" />
        </mxCell>
        <mxCell id="jny_ChL_rsMG7FqHofqp-3" value="" style="edgeStyle=orthogonalEdgeStyle;rounded=0;orthogonalLoop=1;jettySize=auto;html=1;" edge="1" parent="1" source="PeO6D0qIIOiNLHHirlC0-5" target="jny_ChL_rsMG7FqHofqp-2">
          <mxGeometry relative="1" as="geometry" />
        </mxCell>
        <mxCell id="jny_ChL_rsMG7FqHofqp-12" value="" style="edgeStyle=orthogonalEdgeStyle;rounded=0;orthogonalLoop=1;jettySize=auto;html=1;" edge="1" parent="1" source="PeO6D0qIIOiNLHHirlC0-5" target="jny_ChL_rsMG7FqHofqp-11">
          <mxGeometry relative="1" as="geometry" />
        </mxCell>
        <mxCell id="PeO6D0qIIOiNLHHirlC0-5" value="int i = 0; i &amp;lt; InitialArr.Length; i++" style="rhombus;whiteSpace=wrap;html=1;" parent="1" vertex="1">
          <mxGeometry x="189.95" y="600" width="210" height="140" as="geometry" />
        </mxCell>
        <mxCell id="jny_ChL_rsMG7FqHofqp-5" value="" style="edgeStyle=orthogonalEdgeStyle;rounded=0;orthogonalLoop=1;jettySize=auto;html=1;" edge="1" parent="1" source="jny_ChL_rsMG7FqHofqp-2" target="jny_ChL_rsMG7FqHofqp-4">
          <mxGeometry relative="1" as="geometry" />
        </mxCell>
        <mxCell id="jny_ChL_rsMG7FqHofqp-9" style="edgeStyle=orthogonalEdgeStyle;rounded=0;orthogonalLoop=1;jettySize=auto;html=1;entryX=0;entryY=0.5;entryDx=0;entryDy=0;" edge="1" parent="1" source="jny_ChL_rsMG7FqHofqp-2" target="PeO6D0qIIOiNLHHirlC0-5">
          <mxGeometry relative="1" as="geometry">
            <Array as="points">
              <mxPoint x="149.95" y="880" />
              <mxPoint x="149.95" y="670" />
            </Array>
          </mxGeometry>
        </mxCell>
        <mxCell id="jny_ChL_rsMG7FqHofqp-2" value="InitialArr.Length &amp;lt;= 3" style="rhombus;whiteSpace=wrap;html=1;" vertex="1" parent="1">
          <mxGeometry x="209.95" y="810" width="170" height="140" as="geometry" />
        </mxCell>
        <mxCell id="jny_ChL_rsMG7FqHofqp-8" style="edgeStyle=orthogonalEdgeStyle;rounded=0;orthogonalLoop=1;jettySize=auto;html=1;entryX=0;entryY=0.5;entryDx=0;entryDy=0;" edge="1" parent="1" source="jny_ChL_rsMG7FqHofqp-4" target="PeO6D0qIIOiNLHHirlC0-5">
          <mxGeometry relative="1" as="geometry">
            <Array as="points">
              <mxPoint x="69.94999999999999" y="1060" />
              <mxPoint x="69.94999999999999" y="670" />
            </Array>
          </mxGeometry>
        </mxCell>
        <mxCell id="jny_ChL_rsMG7FqHofqp-4" value="someArr[j] = initialArr[i];&lt;br&gt;j++;" style="whiteSpace=wrap;html=1;" vertex="1" parent="1">
          <mxGeometry x="209.95" y="1020" width="170" height="80" as="geometry" />
        </mxCell>
        <mxCell id="jny_ChL_rsMG7FqHofqp-6" value="Yes" style="text;html=1;strokeColor=none;fillColor=none;align=center;verticalAlign=middle;whiteSpace=wrap;rounded=0;" vertex="1" parent="1">
          <mxGeometry x="234.95" y="970" width="60" height="30" as="geometry" />
        </mxCell>
        <mxCell id="jny_ChL_rsMG7FqHofqp-7" value="Yes" style="text;html=1;strokeColor=none;fillColor=none;align=center;verticalAlign=middle;whiteSpace=wrap;rounded=0;" vertex="1" parent="1">
          <mxGeometry x="234.95" y="760" width="60" height="30" as="geometry" />
        </mxCell>
        <mxCell id="jny_ChL_rsMG7FqHofqp-10" value="No" style="text;html=1;strokeColor=none;fillColor=none;align=center;verticalAlign=middle;whiteSpace=wrap;rounded=0;" vertex="1" parent="1">
          <mxGeometry x="89.94999999999999" y="761" width="60" height="30" as="geometry" />
        </mxCell>
        <mxCell id="jny_ChL_rsMG7FqHofqp-14" value="" style="edgeStyle=orthogonalEdgeStyle;rounded=0;orthogonalLoop=1;jettySize=auto;html=1;" edge="1" parent="1" source="jny_ChL_rsMG7FqHofqp-11" target="jny_ChL_rsMG7FqHofqp-13">
          <mxGeometry relative="1" as="geometry" />
        </mxCell>
        <mxCell id="jny_ChL_rsMG7FqHofqp-11" value="return someArr" style="shape=document;whiteSpace=wrap;html=1;boundedLbl=1;" vertex="1" parent="1">
          <mxGeometry x="510" y="620" width="180" height="100" as="geometry" />
        </mxCell>
        <mxCell id="jny_ChL_rsMG7FqHofqp-13" value="End" style="ellipse;whiteSpace=wrap;html=1;" vertex="1" parent="1">
          <mxGeometry x="560" y="810" width="80" height="80" as="geometry" />
        </mxCell>
        <mxCell id="jny_ChL_rsMG7FqHofqp-15" value="&lt;b&gt;Описание основного метода&lt;/b&gt;" style="text;html=1;strokeColor=none;fillColor=none;align=center;verticalAlign=middle;whiteSpace=wrap;rounded=0;" vertex="1" parent="1">
          <mxGeometry x="124.94999999999999" y="250" width="340" height="30" as="geometry" />
        </mxCell>
        <mxCell id="jny_ChL_rsMG7FqHofqp-16" value="No" style="text;html=1;strokeColor=none;fillColor=none;align=center;verticalAlign=middle;whiteSpace=wrap;rounded=0;" vertex="1" parent="1">
          <mxGeometry x="420" y="640" width="60" height="30" as="geometry" />
        </mxCell>
      </root>
    </mxGraphModel>
  </diagram>
</mxfile>
